<svg xmlns="http://www.w3.org/2000/svg" width="65.6794mm" height="24.75mm" style="shape-rendering:geometricPrecision; text-rendering:geometricPrecision; image-rendering:optimizeQuality; fill-rule:evenodd; clip-rule:evenodd" viewBox="0 0 823.1 310.17" xmlns:xlink="http://www.w3.org/1999/xlink" xmlns:xodm="http://www.corel.com/coreldraw/odm/2003"><defs><style>.fil2 {fill:#FEFEFE;fill-rule:nonzero}
.fil1 {fill:#FEB53A;fill-rule:nonzero}
.fil3 {fill:#00A3D3;fill-rule:nonzero}
.fil0 {fill:#0F1B5F;fill-rule:nonzero}</style></defs><g id="Layer_x0020_1"><g id="_2293082500704"><path class="fil0" d="M77.03 136.1 38.35 73.29h-38.34v4.05l60.15 90.56v66.08h33.67v-66.06l62.39-90.56v-4.07h-38.76L77.03 136.1zM527.1 76.04c7.49-5.54 15.87-9.71 24.47-12.93 8.63-3.23 17.73-4.96 26.82-5.63 9.1-.64 18.27-.03 27.12 1.85l3.07.65 2-2.68c6.47-8.69 11.85-13.46 20.41-20.1 8.47-6.75 17.91-12.31 27.95-16.46 10.04-4.12 20.58-7.1 31.38-8.55 10.8-1.41 21.82-1.37 32.65.02 21.62 2.91 42.63 11.39 60.04 24.95 17.41 13.53 31.32 31.64 40.09 52.46-5.43-21.88-17.91-42.39-35.3-57.99-17.33-15.71-39.7-26.16-63.24-29.98-23.55-3.86-48.31-.88-70.25 8.58-10.97 4.7-21.29 10.88-30.44 18.43-8.33 6.93-13.42 11.86-19.74 20.54-8.85-1.18-17.81-1.13-26.61-.05-9.89 1.18-19.52 4-28.45 8.1-8.96 4.06-17.18 9.52-24.37 15.94-7.13 6.51-13.22 14-17.96 22.16 5.96-7.35 12.81-13.86 20.35-19.31zm-78.54 89.23c0 26.11-13.18 41.08-36.16 41.08-24.4.0-38.4-14.98-38.4-41.08V73.52h-33.45v91.75c0 43.78 28.11 72.07 71.63 72.07 43.08.0 69.83-27.61 69.83-72.07V73.52h-33.45v91.75zm-207.89-95.1c-56.74.0-82.57 43.85-82.57 84.59.0 41.22 25.53 82.8 82.57 82.8 56.26.0 81.9-41.69 82.36-83.01.26-23.64-8.36-46.07-23.66-61.53-14.79-14.95-35.09-22.86-58.7-22.86zm-49.35 84.99c-.4-15.84 4.89-30.58 14.52-40.46 8.75-8.98 20.48-13.54 34.83-13.54 14.24.0 25.84 4.46 34.49 13.25 9.58 9.74 14.92 24.52 14.65 40.54-.43 24.85-13.56 51.4-49.13 51.4-35.4.0-48.71-26.45-49.35-51.2z"/><path class="fil1" d="M625.49 226.48c-13.02 8.09-27.91 12.33-43.45 12.33-45.86.0-83.19-37.33-83.19-83.19.0-45.89 37.33-83.19 83.19-83.19 6.42.0 12.85.75 19.02 2.22l.44.14c-1.52 2.58-2.96 5.2-4.29 7.92-3.54 7.09-6.37 14.48-8.36 22.02-2.27-.31-4.54-.44-6.81-.44-28.3.0-51.35 23.01-51.35 51.34.0 28.3 23.04 51.34 51.35 51.34 7.78.0 15.34-1.74 22.21-5.07.39.64.8 1.27 1.22 1.88 5.65 8.36 12.38 16.01 20.02 22.71zM60.51 280.82v-6.2h27.13v6.2H77.31v28.98h-6.45v-28.98H60.51zM95.3 292.2c0-1.65.21-3.24.64-4.77.42-1.53 1.03-2.96 1.81-4.28.79-1.33 1.73-2.53 2.82-3.63 1.1-1.09 2.31-2.03 3.64-2.81 1.33-.78 2.77-1.38 4.3-1.8 1.54-.42 3.13-.64 4.78-.64s3.24.21 4.77.64 2.96 1.03 4.29 1.8c1.33.78 2.55 1.72 3.66 2.81 1.1 1.1 2.04 2.3 2.82 3.63.78 1.32 1.38 2.75 1.81 4.28s.65 3.12.65 4.77-.22 3.24-.65 4.77-1.04 2.96-1.81 4.28c-.78 1.32-1.72 2.54-2.82 3.63-1.11 1.1-2.32 2.03-3.66 2.81-1.33.78-2.76 1.38-4.29 1.8s-3.12.64-4.77.64c-2.49.0-4.82-.47-7-1.41s-4.09-2.22-5.73-3.84c-1.64-1.62-2.92-3.52-3.86-5.69-.94-2.18-1.41-4.5-1.41-6.99zm6.43.0c0 1.59.31 3.08.92 4.48.61 1.4 1.45 2.62 2.5 3.65 1.06 1.04 2.28 1.86 3.68 2.47s2.89.91 4.48.91c1.57.0 3.06-.3 4.47-.91s2.63-1.43 3.68-2.47c1.05-1.04 1.88-2.26 2.49-3.65.61-1.4.92-2.89.92-4.48.0-1.58-.31-3.08-.92-4.47-.61-1.39-1.44-2.6-2.49-3.64-1.05-1.04-2.27-1.86-3.68-2.46-1.41-.61-2.9-.91-4.47-.91-1.59.0-3.08.3-4.48.91s-2.63 1.43-3.68 2.46c-1.05 1.04-1.89 2.26-2.5 3.64-.61 1.39-.92 2.88-.92 4.47zm70.33.0c0 1.59.31 3.08.92 4.48.61 1.4 1.45 2.62 2.5 3.65 1.05 1.04 2.28 1.86 3.68 2.47s2.89.91 4.48.91c1.23.0 2.38-.19 3.47-.55 1.09-.37 2.1-.87 3.03-1.51.36-.23.75-.41 1.17-.54.41-.13.85-.2 1.31-.2.74.0 1.36.12 1.88.36.52.24.99.57 1.43.99l1.5 1.5c-.92.98-1.91 1.86-2.97 2.65-1.06.79-2.18 1.46-3.35 2.01-1.17.56-2.38.98-3.63 1.28-1.25.3-2.53.44-3.84.44-2.49.0-4.82-.47-7.01-1.41-2.18-.94-4.09-2.22-5.73-3.84-1.64-1.62-2.92-3.52-3.86-5.69-.94-2.18-1.41-4.5-1.41-6.99.0-1.65.21-3.24.64-4.77.43-1.53 1.03-2.96 1.82-4.28.78-1.33 1.73-2.53 2.82-3.63 1.09-1.09 2.31-2.03 3.64-2.81 1.33-.78 2.77-1.38 4.3-1.8 1.54-.42 3.13-.64 4.78-.64 1.31.0 2.59.14 3.84.44 1.25.29 2.46.72 3.63 1.28 1.17.56 2.28 1.23 3.35 2.01 1.06.79 2.05 1.67 2.97 2.65l-1.5 1.5c-.42.43-.91.77-1.46 1.02s-1.17.38-1.85.38c-.9.0-1.73-.26-2.48-.78-.95-.64-1.97-1.14-3.06-1.5s-2.24-.54-3.45-.54c-1.59.0-3.08.3-4.48.91-1.4.61-2.62 1.43-3.68 2.46-1.06 1.04-1.89 2.26-2.5 3.64-.61 1.39-.92 2.88-.92 4.47zm39.05 17.59v-35.15h6.43v29h14.55v6.16h-20.97zm28.5-17.59c0-1.65.21-3.24.64-4.77.42-1.53 1.03-2.96 1.81-4.28.78-1.33 1.73-2.53 2.82-3.63 1.1-1.09 2.31-2.03 3.64-2.81 1.33-.78 2.77-1.38 4.3-1.8 1.54-.42 3.13-.64 4.78-.64s3.24.21 4.77.64 2.96 1.03 4.29 1.8c1.33.78 2.55 1.72 3.65 2.81 1.11 1.1 2.05 2.3 2.82 3.63.78 1.32 1.38 2.75 1.82 4.28.43 1.53.65 3.12.65 4.77s-.22 3.24-.65 4.77c-.43 1.53-1.04 2.96-1.82 4.28s-1.72 2.54-2.82 3.63c-1.1 1.1-2.32 2.03-3.65 2.81-1.33.78-2.76 1.38-4.29 1.8-1.53.42-3.12.64-4.77.64-2.49.0-4.82-.47-7.01-1.41-2.18-.94-4.09-2.22-5.73-3.84-1.63-1.62-2.92-3.52-3.86-5.69-.94-2.18-1.41-4.5-1.41-6.99zm6.43.0c0 1.59.31 3.08.92 4.48.61 1.4 1.45 2.62 2.5 3.65 1.05 1.04 2.28 1.86 3.68 2.47s2.89.91 4.48.91c1.57.0 3.06-.3 4.47-.91 1.4-.61 2.63-1.43 3.68-2.47s1.88-2.26 2.49-3.65c.62-1.4.92-2.89.92-4.48.0-1.58-.3-3.08-.92-4.47-.61-1.39-1.44-2.6-2.49-3.64-1.05-1.04-2.27-1.86-3.68-2.46-1.41-.61-2.89-.91-4.47-.91-1.59.0-3.08.3-4.48.91-1.4.61-2.62 1.43-3.68 2.46-1.06 1.04-1.89 2.26-2.5 3.64-.61 1.39-.92 2.88-.92 4.47zm49.45 3.66c0 1.08.21 2.1.63 3.05.42.96.99 1.79 1.72 2.5s1.57 1.28 2.53 1.69 1.98.63 3.05.63c1.08.0 2.1-.21 3.07-.63.96-.42 1.81-.98 2.53-1.69.72-.71 1.29-1.55 1.72-2.5.43-.96.64-1.98.64-3.05v-21.22h6.45v21.22c0 1.33-.17 2.59-.52 3.8-.34 1.21-.83 2.35-1.45 3.41s-1.37 2.03-2.24 2.89c-.88.87-1.85 1.61-2.92 2.23s-2.22 1.11-3.45 1.45c-1.23.34-2.5.52-3.83.52-1.98.0-3.84-.38-5.58-1.13s-3.26-1.77-4.56-3.07c-1.3-1.29-2.33-2.8-3.09-4.54-.76-1.73-1.14-3.59-1.14-5.57v-21.22h6.45v21.22zm37.53 13.93v-35.15h13.86c1.62.0 3.18.21 4.68.63 1.5.41 2.91 1.01 4.22 1.78s2.5 1.69 3.57 2.76 1.99 2.26 2.76 3.56 1.37 2.7 1.79 4.19c.42 1.5.64 3.06.64 4.67.0 1.62-.21 3.18-.64 4.67-.43 1.5-1.02 2.9-1.79 4.19-.77 1.3-1.69 2.49-2.76 3.56s-2.26 1.99-3.57 2.75-2.72 1.35-4.22 1.77c-1.51.42-3.07.63-4.68.63h-13.86zm13.86-6.45c1.52.0 2.96-.29 4.33-.87s2.56-1.37 3.57-2.38c1.02-1.01 1.82-2.18 2.42-3.53.6-1.35.89-2.79.89-4.33.0-1.54-.3-2.98-.89-4.33-.6-1.35-1.4-2.53-2.42-3.53-1.01-1.01-2.2-1.8-3.57-2.39-1.36-.59-2.81-.88-4.33-.88h-7.43v22.25h7.43zm64.22-28.7h5.81l15.36 35.15h-4c-.92.0-1.75-.24-2.5-.71-.75-.47-1.32-1.13-1.69-1.96l-2.09-4.76h-15.97l-2.06 4.76c-.16.39-.39.75-.69 1.08-.29.33-.63.61-1.01.85s-.78.42-1.21.55-.87.2-1.31.2h-4l15.36-35.15zm-2.23 21.27h10.28l-4.59-10.65c-.21-.49-.36-.94-.43-1.35s-.12-.72-.13-.93c-.02.21-.07.53-.15.94-.08.42-.22.86-.42 1.34l-4.56 10.65zm65.42 13.89h-5.96l-16.78-23.45c-.21-.29-.41-.6-.59-.92-.18-.32-.35-.63-.53-.94-.17-.31-.33-.6-.48-.88-.15-.28-.29-.51-.44-.71v26.91h-6.43v-35.15h5.67c.79.0 1.48.11 2.07.34.6.23 1.07.58 1.41 1.05 2.45 3.48 4.9 6.94 7.34 10.38s4.88 6.89 7.33 10.38c.28.41.5.87.66 1.4.16.52.26.92.29 1.2v-24.75h6.43v35.15zm15.95.0v-35.15h13.86c1.62.0 3.18.21 4.69.63 1.5.41 2.91 1.01 4.22 1.78s2.5 1.69 3.57 2.76 1.99 2.26 2.76 3.56 1.37 2.7 1.79 4.19c.42 1.5.64 3.06.64 4.67.0 1.62-.21 3.18-.64 4.67-.43 1.5-1.02 2.9-1.79 4.19-.77 1.3-1.69 2.49-2.76 3.56-1.07 1.07-2.26 1.99-3.57 2.75-1.31.76-2.71 1.35-4.22 1.77-1.51.42-3.07.63-4.69.63h-13.86zm13.86-6.45c1.52.0 2.96-.29 4.33-.87s2.56-1.37 3.57-2.38 1.82-2.18 2.41-3.53c.6-1.35.9-2.79.9-4.33.0-1.54-.3-2.98-.9-4.33-.6-1.35-1.4-2.53-2.41-3.53-1.02-1.01-2.2-1.8-3.57-2.39-1.36-.59-2.81-.88-4.33-.88h-7.43v22.25h7.43zm70.01 6.43c-.87.0-1.77.0-2.7.0-.93.0-2.01.0-3.23.01s-2.64.01-4.27.01-3.58.0-5.85.0v-35.15h14.67c1.42.0 2.76.27 4.02.81s2.36 1.27 3.3 2.2c.94.92 1.68 2.01 2.22 3.26.54 1.25.81 2.59.81 4.01.0.61-.09 1.26-.28 1.98-.19.71-.45 1.38-.79 2.01-.33.63-.72 1.17-1.16 1.62-.44.45-.92.71-1.42.77.65.05 1.3.33 1.93.85.63.51 1.19 1.15 1.68 1.92.49.77.89 1.61 1.19 2.53.3.92.45 1.81.45 2.68.0 1.45-.28 2.82-.83 4.09-.56 1.28-1.31 2.39-2.27 3.34s-2.08 1.7-3.36 2.24c-1.28.55-2.65.82-4.11.82zm-9.62-28.68v7.65h8.39c.52.0 1.01-.1 1.47-.31s.86-.48 1.2-.82.61-.74.81-1.2c.19-.46.29-.95.29-1.47.0-.52-.1-1.02-.29-1.48-.2-.47-.47-.88-.81-1.23-.34-.35-.74-.63-1.2-.83-.46-.21-.95-.31-1.47-.31h-8.39zm9.76 22.25c.52.0 1.03-.11 1.51-.33.48-.22.91-.52 1.28-.89.37-.38.66-.81.88-1.31s.33-1.02.33-1.56c0-.56-.11-1.08-.32-1.57s-.5-.92-.86-1.29-.78-.66-1.26-.87-.99-.32-1.53-.32h-9.79v8.14h9.76zm47.3 6.45h-22.57v-35.15h22.57v6.16h-16.14V289h13.1v6.16h-13.1v8.49h16.14v6.16zm30.61.0h-6.45v-14.89c0-.52-.11-.99-.34-1.4-.23-.41-.53-.87-.91-1.4l-12.9-17.47h4.93c1.08.0 2.03.21 2.86.64s1.51 1.04 2.05 1.84l6.94 9.4c.21.29.36.6.44.91s.13.51.15.59c0-.07.05-.26.14-.58s.25-.62.48-.92l6.92-9.37c.54-.84 1.22-1.46 2.05-1.88.83-.42 1.78-.63 2.86-.63h4.98l-12.93 17.49c-.19.26-.37.5-.51.72-.15.22-.28.44-.39.65s-.2.43-.26.66-.09.47-.09.74v14.89zm21.22-17.59c0-1.65.21-3.24.64-4.77.42-1.53 1.03-2.96 1.81-4.28.79-1.33 1.73-2.53 2.82-3.63 1.1-1.09 2.31-2.03 3.64-2.81 1.33-.78 2.77-1.38 4.31-1.8s3.13-.64 4.78-.64 3.24.21 4.77.64 2.96 1.03 4.29 1.8c1.33.78 2.55 1.72 3.66 2.81 1.1 1.1 2.04 2.3 2.82 3.63.78 1.32 1.38 2.75 1.81 4.28s.65 3.12.65 4.77-.22 3.24-.65 4.77-1.04 2.96-1.81 4.28c-.78 1.32-1.72 2.54-2.82 3.63-1.11 1.1-2.32 2.03-3.66 2.81-1.33.78-2.76 1.38-4.29 1.8s-3.12.64-4.77.64c-2.49.0-4.82-.47-7-1.41s-4.09-2.22-5.73-3.84c-1.64-1.62-2.92-3.52-3.86-5.69-.94-2.18-1.41-4.5-1.41-6.99zm6.43.0c0 1.59.31 3.08.92 4.48.61 1.4 1.45 2.62 2.5 3.65 1.06 1.04 2.28 1.86 3.68 2.47s2.89.91 4.48.91c1.57.0 3.06-.3 4.47-.91 1.41-.61 2.63-1.43 3.68-2.47s1.88-2.26 2.49-3.65c.61-1.4.92-2.89.92-4.48.0-1.58-.31-3.08-.92-4.47-.61-1.39-1.44-2.6-2.49-3.64-1.05-1.04-2.27-1.86-3.68-2.46-1.41-.61-2.9-.91-4.47-.91-1.59.0-3.08.3-4.48.91s-2.62 1.43-3.68 2.46c-1.05 1.04-1.89 2.26-2.5 3.64-.61 1.39-.92 2.88-.92 4.47zm74.72 17.59h-5.96l-16.78-23.45c-.21-.29-.41-.6-.59-.92-.18-.32-.36-.63-.53-.94s-.33-.6-.48-.88-.29-.51-.44-.71v26.91h-6.43v-35.15h5.67c.78.0 1.48.11 2.07.34.6.23 1.07.58 1.41 1.05 2.45 3.48 4.9 6.94 7.33 10.38 2.44 3.44 4.88 6.89 7.33 10.38.28.41.5.87.66 1.4.16.52.26.92.29 1.2v-24.75h6.43v35.15zm15.95.0v-35.15h13.86c1.62.0 3.18.21 4.69.63 1.5.41 2.91 1.01 4.22 1.78 1.31.77 2.5 1.69 3.57 2.76s1.99 2.26 2.76 3.56 1.36 2.7 1.79 4.19c.42 1.5.64 3.06.64 4.67.0 1.62-.21 3.18-.64 4.67-.43 1.5-1.02 2.9-1.79 4.19-.77 1.3-1.69 2.49-2.76 3.56-1.07 1.07-2.26 1.99-3.57 2.75-1.31.76-2.71 1.35-4.22 1.77-1.51.42-3.07.63-4.69.63h-13.86zm13.86-6.45c1.52.0 2.96-.29 4.33-.87s2.56-1.37 3.57-2.38c1.02-1.01 1.82-2.18 2.42-3.53.6-1.35.9-2.79.9-4.33.0-1.54-.3-2.98-.9-4.33-.6-1.35-1.4-2.53-2.42-3.53-1.01-1.01-2.2-1.8-3.57-2.39-1.36-.59-2.81-.88-4.33-.88h-7.43v22.25h7.43z"/><path class="fil2" d="M802.34 169.46l-1.05 2.82c-15.01 39.77-53.62 66.52-96.04 66.52-24.67.0-48.55-8.95-67.21-25.17-6.79-5.87-12.74-12.57-17.7-19.91-11.6-17.03-17.72-36.92-17.72-57.55.0-6.81.66-13.6 2.02-20.19 1.72-8.72 4.62-17.23 8.64-25.26 17.45-35.25 52.7-57.16 91.97-57.16 42.12.0 79.51 25.28 95.24 64.44l1.16 2.85h-33.09l-.61-1.05c-12.96-22.29-37-36.17-62.7-36.17-28.94.0-55.08 17.2-66.58 43.81-3.96 9.08-5.95 18.72-5.95 28.72.0 1.58.06 3.19.17 4.76.03.47.08.91.14 1.38.08 1.11.19 2.22.33 3.32.55 4.26 1.38 6.48 1.94 9.66.25.89.55 1.77.83 2.66.19.64.39 1.3.61 1.97.33.97.72 1.91 1.11 2.88.22.55.41 1.11.64 1.66.42 1 .89 1.94 1.33 2.91.25.5.47 1.03.72 1.52.47.94 1 1.86 1.52 2.77.28.5.53 1 .83 1.5.53.89 1.11 1.77 1.69 2.63.33.5.61 1 .94 1.5.61.86 1.25 1.69 1.88 2.52.36.47.69.94 1.05 1.38.75.97 1.55 1.88 2.35 2.8.28.3.53.64.8.94 1.11 1.22 2.27 2.38 3.46 3.52 13.57 13.04 31.38 20.24 50.18 20.24 26.64.0 51.1-14.62 63.83-38.14l.58-1.11h32.68z"/><path class="fil3" d="M802.34 169.46l-1.05 2.82c-15.01 39.77-53.62 66.52-96.04 66.52-24.67.0-48.55-8.95-67.21-25.17-6.79-5.87-12.74-12.57-17.7-19.91-11.6-17.03-17.72-36.92-17.72-57.55.0-6.81.66-13.6 2.02-20.19 1.72-8.72 4.62-17.23 8.64-25.26 17.45-35.25 52.7-57.16 91.97-57.16 42.12.0 79.51 25.28 95.24 64.44l1.16 2.85h-33.09l-.61-1.05c-12.96-22.29-37-36.17-62.7-36.17-28.94.0-55.08 17.2-66.58 43.81-3.96 9.08-5.95 18.72-5.95 28.72.0 1.58.06 3.19.17 4.76.03.47.08.91.14 1.38.08 1.11.19 2.22.33 3.32.55 4.26 1.38 6.48 1.94 9.66.25.89.55 1.77.83 2.66.19.64.39 1.3.61 1.97.33.97.72 1.91 1.11 2.88.22.55.41 1.11.64 1.66.42 1 .89 1.94 1.33 2.91.25.5.47 1.03.72 1.52.47.94 1 1.86 1.52 2.77.28.5.53 1 .83 1.5.53.89 1.11 1.77 1.69 2.63.33.5.61 1 .94 1.5.61.86 1.25 1.69 1.88 2.52.36.47.69.94 1.05 1.38.75.97 1.55 1.88 2.35 2.8.28.3.53.64.8.94 1.11 1.22 2.27 2.38 3.46 3.52 13.57 13.04 31.38 20.24 50.18 20.24 26.64.0 51.1-14.62 63.83-38.14l.58-1.11h32.68z"/><path class="fil3" d="M802.34 169.46l-1.05 2.82c-15.01 39.77-53.62 66.52-96.04 66.52-24.67.0-48.55-8.95-67.21-25.17-6.79-5.87-12.74-12.57-17.7-19.91-11.6-17.03-17.72-36.92-17.72-57.55.0-6.81.66-13.6 2.02-20.19 1.72-8.72 4.62-17.23 8.64-25.26 17.45-35.25 52.7-57.16 91.97-57.16 42.12.0 79.51 25.28 95.24 64.44l1.16 2.85h-33.09l-.61-1.05c-12.96-22.29-37-36.17-62.7-36.17-28.94.0-55.08 17.2-66.58 43.81-3.96 9.08-5.95 18.72-5.95 28.72.0 1.58.06 3.19.17 4.76.03.47.08.91.14 1.38.08 1.11.19 2.22.33 3.32.55 4.26 1.38 6.48 1.94 9.66.25.89.55 1.77.83 2.66.19.64.39 1.3.61 1.97.33.97.72 1.91 1.11 2.88.22.55.41 1.11.64 1.66.42 1 .89 1.94 1.33 2.91.25.5.47 1.03.72 1.52.47.94 1 1.86 1.52 2.77.28.5.53 1 .83 1.5.53.89 1.11 1.77 1.69 2.63.33.5.61 1 .94 1.5.61.86 1.25 1.69 1.88 2.52.36.47.69.94 1.05 1.38.75.97 1.55 1.88 2.35 2.8.28.3.53.64.8.94 1.11 1.22 2.27 2.38 3.46 3.52 13.57 13.04 31.38 20.24 50.18 20.24 26.64.0 51.1-14.62 63.83-38.14l.58-1.11h32.68z"/></g></g></svg>